# xmcd CD database file
#
# Track frame offsets:
#	150
#	38721
#	64502
#	88661
#	130641
#	153820
#	188168
#	228008
#	258145
#	289396
#
# Disc length: 4281 seconds
#
# Revision: 0
# Processed by: cddbd v1.5.2PL0 Copyright (c) Steve Scherf et al.
# Submitted via: CDex 1.51
#
DISCID=7610b70a
DTITLE=Dieter Fischer Quintett - Live At Domicile
DYEAR=2009
DGENRE=Jazz
TTITLE0=Bock to Bock
TTITLE1=No Hard Feeling
TTITLE2=The Lamp is Low
TTITLE3=Idle Moments
TTITLE4=Full House
TTITLE5=Road Song
TTITLE6=Jingles
TTITLE7=Another Goodun
TTITLE8=Snow Fall
TTITLE9=Mister Walker
EXTD=YEAR: 2009
EXTT0=
EXTT1=
EXTT2=
EXTT3=
EXTT4=
EXTT5=
EXTT6=
EXTT7=
EXTT8=
EXTT9=
PLAYORDER=
